<?xml version="1.0" encoding="utf-8"?>
<!-- Generator: Adobe Illustrator 23.1.0, SVG Export Plug-In . SVG Version: 6.00 Build 0)  -->
<svg version="1.1" id="Layer_1" xmlns="http://www.w3.org/2000/svg" xmlns:xlink="http://www.w3.org/1999/xlink" x="0px" y="0px"
	 viewBox="0 0 1200 1200" style="enable-background:new 0 0 1200 1200;" xml:space="preserve">
<style type="text/css">
	.st0{fill:#2B2E3A;}
	.st1{fill:#9FEAF9;}
</style>
<circle class="st0" cx="600" cy="600" r="600"/>
<g>
	<path class="st1" d="M223.29,784.41c6.14,0.84,12.15,1.16,17.9,2.53c29.49,7.03,48.72,34.32,45.73,64.51
		c-2.88,29.09-28.03,52.54-57.38,53.48c-30.06,0.97-56.78-20.42-61.21-50.11c-3.73-24.98,5.34-45.09,26.07-59.69
		c2.14-1.51,3.8-2.64,3.64-5.76c-1.96-37.29,8.44-71.79,24.33-104.92c22.15-46.16,52.81-86.38,88.63-122.54
		c99.8-100.73,218.29-170.45,353.98-211.09c13.53-4.05,27.37-7.12,41.12-10.43c7.69-1.85,14.38,2.08,15.96,8.95
		c1.7,7.36-2.42,13.75-10.36,15.54c-112.53,25.36-213.07,75.99-304.56,145.31c-50.86,38.54-96.3,82.67-132.92,135.29
		c-20.77,29.84-38.18,61.48-46.37,97.22c-2.99,13.03-3.35,26.66-4.87,40.02C222.92,783.32,223.21,783.97,223.29,784.41z
		 M192.68,844.96c-0.05,19.15,15.38,34.78,34.44,34.89c19.07,0.11,34.77-15.4,34.89-34.46c0.12-19.41-15.44-35.16-34.71-35.13
		C208.21,810.28,192.73,825.8,192.68,844.96z"/>
	<path class="st1" d="M652.09,221.83c-8.59,15.19-19.53,25.02-34.37,30.11c-32.58,11.2-67.75-7.24-77.07-40.31
		c-9.46-33.58,11.03-67.26,45.56-74.87c32.76-7.23,65.42,15.29,71.04,48.98c0.08,0.49,0.32,1,0.25,1.47
		c-1.37,9.16,4.44,12.87,11.35,17.09c29.02,17.73,50.83,42.8,69.31,70.91c32.25,49.04,52.1,103.26,65.81,159.92
		c17.71,73.17,24.02,147.48,21.26,222.64c-2.47,67.22-12.24,133.24-31.98,197.66c-1.71,5.57-4.62,9.66-10.61,10.59
		c-9.35,1.45-16.37-6.67-13.91-16.03c4.52-17.22,9.58-34.32,13.57-51.66c9.12-39.68,14.27-79.95,16.82-120.59
		c2.56-40.66,2.23-81.29-1.27-121.86c-6.46-74.96-21.58-147.89-52.99-216.75c-15.59-34.17-34.75-66.12-62.22-92.24
		C673.29,238.01,662.68,230.45,652.09,221.83z M598,230.04c19.23,0.05,34.82-15.26,34.95-34.34c0.13-19.41-15.38-34.99-34.79-34.96
		c-19.21,0.03-34.65,15.4-34.71,34.55C563.38,214.39,578.9,229.99,598,230.04z"/>
	<path class="st1" d="M915.87,874.34c-8.29-16.1-10.05-32.53-3.96-49.5c9.91-27.65,38.48-44.06,67.28-38.71
		c28.91,5.37,49.35,30.83,48.85,60.85c-0.47,28.43-22.5,53.01-51.19,57.29c-14.47,2.16-27.81-0.89-40.18-8.42
		c-2.39-1.45-4.14-1.73-6.74-0.28c-25.57,14.28-53.37,21.27-82.24,24.45c-53.19,5.85-105.42-0.68-157.01-13.32
		c-92.23-22.59-176.73-62.58-255.56-114.99c-49.44-32.87-94.89-70.54-135.26-114.2c-3.15-3.41-5.96-6.9-5.47-11.82
		c0.51-5.23,3.2-9.03,8.28-10.88c5.1-1.86,9.58-0.59,13.28,3.14c4.93,4.97,9.6,10.19,14.5,15.19
		c61.16,62.36,131.89,111.45,209.66,150.66c55.52,28,113.37,49.66,174.34,62.54c40.61,8.58,81.58,13.07,123.1,9.56
		c24.86-2.11,49.08-7.12,71.81-17.9c1.65-0.78,3.29-1.62,4.91-2.46C914.7,875.29,915.06,874.94,915.87,874.34z M1002.95,845.1
		c0.01-19.1-15.46-34.7-34.55-34.84c-19.18-0.14-34.97,15.79-34.96,34.99c0.02,18.64,16.48,34.76,34.86,34.62
		C987.36,879.72,1002.94,864.16,1002.95,845.1z"/>
	<path class="st1" d="M387.03,327.55c27.08,0.23,53.86,3.29,80.51,7.71c6.35,1.05,11.64,3.36,13.3,10.23
		c2.12,8.81-5.42,16.36-14.68,15.19c-19.48-2.47-38.92-5.66-58.49-6.92c-40.59-2.62-80.65,0.31-118.48,17.08
		c-30.33,13.44-52.82,34.51-62.31,67.32c-7.22,24.95-4.95,49.8,1.66,74.46c5.89,22,15.3,42.54,26.3,62.42
		c1.62,2.92,2.77,6.56,2.72,9.84c-0.09,5.53-4.65,9.9-10.05,10.95c-5.23,1.02-10.61-1.25-13.37-6.64
		c-6.75-13.17-13.7-26.29-19.51-39.89c-9.48-22.16-15.4-45.3-16.96-69.51c-3.69-57.43,24.38-105.14,76.61-129.9
		c26.55-12.59,54.71-18.66,83.81-20.9C367.72,328.25,377.39,328.02,387.03,327.55z"/>
	<path class="st1" d="M998.76,468.26c-0.43,35.46-9.45,65.75-22.95,94.87c-16.3,35.16-38.21,66.68-63.12,96.2
		c-5.01,5.94-12.77,6.62-18.2,1.95c-5.54-4.77-6.04-12.06-0.85-18.26c18.32-21.89,35.09-44.87,48.89-69.9
		c14.48-26.27,25.8-53.69,29.64-83.74c7.32-57.25-18.57-100.48-72.52-121.11c-23.89-9.14-48.79-13.08-74.21-14.25
		c-3.83-0.18-7.68-0.04-11.48-0.46c-7.35-0.82-12.18-6.21-11.94-12.93c0.25-6.97,5.69-12.41,13.32-11.91
		c16.6,1.08,33.28,1.92,49.69,4.44c29.8,4.58,57.82,14.45,82.21,32.76C982.29,392.23,998.33,427.99,998.76,468.26z"/>
	<path class="st1" d="M598.01,1068.36c-37.26-0.31-68.21-15.84-95.4-40.03c-30.89-27.49-52.8-61.56-70.4-98.52
		c-7.43-15.6-13.68-31.77-20.01-47.87c-1.29-3.28-1.36-7.63-0.42-11.05c1.4-5.08,5.81-7.54,11.09-7.8
		c5.16-0.25,9.87,2.95,11.98,8.21c3.23,8.03,6.08,16.21,9.4,24.19c14.29,34.3,31.8,66.72,56.27,94.98
		c14.51,16.76,30.93,31.3,50.95,41.21c35.95,17.8,70.88,14.86,104.49-6.18c26.69-16.71,46.28-40.34,63.27-66.38
		c2.09-3.21,3.97-6.56,6.17-9.69c4.02-5.69,11.05-7.19,16.77-3.76c5.68,3.4,8.12,10.73,4.61,16.54
		c-23.88,39.5-52.59,74.24-95.56,94.39C634.42,1064.48,616.66,1068.52,598.01,1068.36z"/>
	<path class="st1" d="M554.92,625.77c-0.05-24.1,19.56-43.73,43.5-43.56c23.8,0.17,43.19,19.76,43.08,43.51
		c-0.12,23.9-19.46,43.24-43.27,43.27C574.43,669.01,554.96,649.59,554.92,625.77z"/>
</g>
</svg>
